<?xml version="1.0" encoding="utf-8"?>
<svg viewBox="0 0 500 500" xmlns="http://www.w3.org/2000/svg">
  <g transform="matrix(0.16422, 0, 0, 0.195001, 71.881172, 86.842529)" style="">
    <g>
      <circle style="fill: rgb(216, 216, 216);" cx="149.954" cy="237.408" r="36.008" transform="matrix(39.808914, 0, 0, 32.739655, -4897.185547, -6952.804687)"/>
      <path d="M 2110.7 996.44 C 2086.109 964.539 2057.531 1040.969 2051.217 1052.599 C 2031.611 1088.82 1996.719 1117.398 1956.178 1123.047 C 1880.081 1133.733 1881.989 1100.398 1704.628 992.787 C 1684.025 980.492 1638.832 962.547 1627.534 941.945 C 1623.547 934.302 1627.202 923.668 1625.873 912.702 C 1623.547 894.093 1613.91 873.49 1604.605 856.21 C 1589.984 828.961 1585.664 832.616 1548.113 832.616 C 1493.948 832.385 1239.363 867.987 1122.163 842.567 C 1196.641 635.707 1230.053 670.477 1219.169 561.927 C 1250.018 557.83 1277.894 555.146 1310.845 555.146 C 1315.683 555.146 1339.043 466.409 1344.368 443.586 C 1531.308 403.384 1505.708 409.518 1688.338 296.616 C 1706.947 284.985 1727.55 284.985 1746.823 275.349 C 1774.072 261.724 1787.697 238.796 1819.265 231.817 C 1831.56 229.159 1841.862 229.159 1844.188 213.873 C 1847.179 195.596 1832.225 190.612 1821.924 179.978 C 1806.638 163.695 1825.579 153.394 1841.862 160.704 C 1845.85 162.366 1848.176 168.679 1851.499 171.338 C 1924.37 238.3 1877.223 114.31 1824.915 137.111 C 1660.365 208.168 1809.884 187.793 1584.325 265.711 C 1540.694 280.585 1490.568 277.145 1457.055 305.255 C 1423.415 333.512 1376.911 343.213 1355.035 340.479 L 1354.785 342.229 C 1338.813 339.412 1322.799 336.636 1306.817 333.829 C 1311.781 328.338 1315.238 319.064 1318.814 310.572 C 1341.41 322.867 1327.454 310.572 1349.718 306.584 C 1358.026 304.59 1355.035 312.233 1363.675 311.236 C 1398.103 307.264 1405.453 256.287 1413.188 237.132 C 1421.496 216.861 1424.486 198.917 1411.527 181.305 C 1389.927 151.73 1368.328 125.478 1337.423 106.537 C 1309.177 89.257 1302.199 51.707 1273.621 36.421 C 1242.384 19.806 1217.794 46.058 1186.557 44.064 C 1169.61 42.735 1156.982 27.781 1139.038 27.449 C 1123.087 27.117 1108.798 35.424 1100.823 49.049 C 1092.848 62.009 1095.506 77.627 1079.555 82.944 C 1067.26 86.932 1048.983 74.969 1037.352 81.282 C 1008.774 96.236 1056.626 131.46 1027.383 146.746 C 1020.405 150.401 1012.097 144.088 1008.109 158.709 C 1005.783 167.349 1010.767 180.641 1012.097 188.949 C 1020.099 237.847 991.635 232.977 1015.088 278.006 C 1019.076 285.317 1038.017 303.261 1035.026 310.904 C 1034.361 312.898 1017.414 298.609 1015.752 308.245 C 1015.237 310.992 1019.956 313.999 1024.958 316.408 C 1024.867 316.434 1024.774 316.456 1024.683 316.483 C 960.488 289.889 974.071 310.132 943.643 312.898 C 912.71 315.031 875.436 291.608 845.613 305.587 C 835.644 310.239 828.666 320.208 818.032 320.541 C 805.404 320.873 790.451 306.584 779.152 301.932 C 771.964 298.88 675.142 262.288 639.252 262.72 C 585.734 264.058 589.344 253.675 580.102 244.776 C 553.518 218.856 517.961 237.465 500.349 261.724 C 493.703 271.028 491.377 279.336 484.066 287.644 C 474.429 298.61 468.448 295.287 459.808 299.939 C 434.206 314.228 438.548 370.136 490.712 357.095 C 505.998 353.44 498.687 352.775 513.641 358.092 C 531.974 365.266 564.929 365.054 583.425 362.412 C 595.388 360.751 597.049 355.434 605.357 352.11 C 633.271 340.812 673.479 350.116 698.07 363.076 C 778.251 405.753 777.32 427.86 812.71 423.555 C 810.716 435.186 806.396 446.152 803.738 457.782 C 800.108 474.117 808.584 545.154 807.393 607.652 C 806.772 654.254 794.536 637.096 751.898 700.365 C 747.578 706.679 737.941 714.986 736.612 722.629 C 736.085 726.055 750.582 797.23 733.289 831.289 C 720.207 856.66 662.121 870.786 695.074 924.334 C 699.061 930.98 704.378 942.943 708.698 928.654 C 726.315 964.991 733.585 990.328 751.512 975.546 C 754.3 979.368 757.095 983.2 759.898 987.039 C 715.898 976.269 691.392 1032.713 695.738 1069.218 C 700.075 1105.218 739.564 1190.458 696.735 1276.908 C 691.75 1287.209 633.597 1401.188 644.896 1404.178 C 640.244 1402.849 629.278 1385.901 623.961 1382.578 C 611.333 1374.603 590.731 1371.28 576.774 1366.96 C 433.054 1321.656 554.631 1369.804 415.604 1307.145 C 403.309 1301.496 387.691 1299.834 376.392 1292.856 C 355.125 1279.896 353.131 1256.303 340.503 1236.697 C 311.906 1193.34 245.933 1154.037 233.833 1155.947 C 214.559 1158.938 234.83 1157.941 229.181 1171.233 C 196.817 1246.258 64.571 1198.537 38.441 1236.032 C 29.137 1249.324 45.087 1275.244 55.721 1279.896 C 73.001 1287.871 101.911 1279.564 121.185 1283.552 C 150.095 1289.533 180.335 1304.155 207.916 1313.127 C 272.984 1334.422 310.436 1370.945 416.936 1466.317 C 452.493 1497.886 488.381 1499.215 529.916 1519.818 C 597.041 1553.048 617.312 1661.378 711.026 1616.851 C 750.57 1597.91 770.508 1552.052 800.748 1521.48 C 846.751 1474.609 905.298 1361.21 934.668 1302.82 C 1007.856 1217.435 1028.731 1217.885 1041.188 1139.54 C 1119.84 1108.015 1107.11 1110.082 1226.428 1110.082 C 1283.584 1110.082 1329.778 1108.421 1383.608 1088.815 C 1439.767 1067.88 1486.618 1112.409 1541.118 1099.781 C 1564.379 1094.464 1555.739 1077.184 1574.681 1066.218 C 1592.958 1055.916 1615.222 1084.827 1631.505 1098.119 C 1702.39 1156.954 1769.105 1134.937 1865.115 1221.069 C 1935.288 1285.005 1936.671 1263.983 1961.815 1285.536 C 1966.135 1289.191 1970.455 1302.816 1975.107 1304.477 C 1984.412 1308.132 2045.555 1159.257 2050.54 1150.617 C 2070.478 1118.383 2090.084 1113.399 2100.385 1075.516 C 2104.373 1061.561 2120.988 1009.722 2110.687 996.43 Z"/>
    </g>
  </g>
</svg>